<svg width="20" height="20" viewBox="0 0 20 20" fill="none" xmlns="http://www.w3.org/2000/svg">
<mask id="path-1-inside-1_78_3251" fill="white">
<path d="M13.3334 15C13.7754 15 14.1993 15.1756 14.5119 15.4882C14.8244 15.8007 15 16.2246 15 16.6667C15 17.1087 14.8244 17.5326 14.5119 17.8452C14.1993 18.1577 13.7754 18.3333 13.3334 18.3333C12.8913 18.3333 12.4674 18.1577 12.1549 17.8452C11.8423 17.5326 11.6667 17.1087 11.6667 16.6667C11.6667 16.2246 11.8423 15.8007 12.1549 15.4882C12.4674 15.1756 12.8913 15 13.3334 15ZM13.3334 15.8333C13.1124 15.8333 12.9004 15.9211 12.7441 16.0774C12.5878 16.2337 12.5 16.4457 12.5 16.6667C12.5 16.8877 12.5878 17.0996 12.7441 17.2559C12.9004 17.4122 13.1124 17.5 13.3334 17.5C13.5544 17.5 13.7664 17.4122 13.9226 17.2559C14.0789 17.0996 14.1667 16.8877 14.1667 16.6667C14.1667 16.4457 14.0789 16.2337 13.9226 16.0774C13.7664 15.9211 13.5544 15.8333 13.3334 15.8333ZM5.83337 15C6.2754 15 6.69933 15.1756 7.01189 15.4882C7.32445 15.8007 7.50004 16.2246 7.50004 16.6667C7.50004 17.1087 7.32445 17.5326 7.01189 17.8452C6.69933 18.1577 6.2754 18.3333 5.83337 18.3333C5.39135 18.3333 4.96742 18.1577 4.65486 17.8452C4.3423 17.5326 4.16671 17.1087 4.16671 16.6667C4.16671 16.2246 4.3423 15.8007 4.65486 15.4882C4.96742 15.1756 5.39135 15 5.83337 15ZM5.83337 15.8333C5.61236 15.8333 5.4004 15.9211 5.24412 16.0774C5.08784 16.2337 5.00004 16.4457 5.00004 16.6667C5.00004 16.8877 5.08784 17.0996 5.24412 17.2559C5.4004 17.4122 5.61236 17.5 5.83337 17.5C6.05439 17.5 6.26635 17.4122 6.42263 17.2559C6.57891 17.0996 6.66671 16.8877 6.66671 16.6667C6.66671 16.4457 6.57891 16.2337 6.42263 16.0774C6.26635 15.9211 6.05439 15.8333 5.83337 15.8333ZM15 5H3.56087L5.68337 10H12.5C12.6296 10.0002 12.7574 9.96999 12.8732 9.91181C12.989 9.85363 13.0895 9.76909 13.1667 9.665L15.6667 6.33167H15.6675C15.76 6.2078 15.8161 6.06067 15.8297 5.90672C15.8433 5.75277 15.8139 5.59807 15.7446 5.45991C15.6754 5.32175 15.569 5.20556 15.4376 5.12435C15.3061 5.04313 15.1546 5.00008 15 5ZM12.5 10.8333H5.72171L5.08337 12.1333L5.00004 12.5C5.00004 12.721 5.08784 12.933 5.24412 13.0893C5.4004 13.2455 5.61236 13.3333 5.83337 13.3333H15V14.1667H5.83337C5.54318 14.1668 5.25798 14.0912 5.00599 13.9473C4.75399 13.8033 4.54395 13.5961 4.39663 13.3461C4.24931 13.0961 4.16983 12.8119 4.16604 12.5217C4.16225 12.2316 4.2343 11.9454 4.37504 11.6917L4.97504 10.4633L1.94837 3.33333H0.833374V2.5H2.50004L3.20754 4.16667H15C15.3149 4.1667 15.6234 4.25593 15.8897 4.42405C16.1559 4.59216 16.3691 4.83226 16.5045 5.11654C16.64 5.40083 16.6921 5.71767 16.6549 6.03035C16.6176 6.34304 16.4926 6.63879 16.2942 6.88333L13.8659 10.1217C13.7123 10.3415 13.508 10.521 13.2702 10.6449C13.0324 10.7688 12.7682 10.8335 12.5 10.8333Z"/>
</mask>
<path d="M13.3334 15C13.7754 15 14.1993 15.1756 14.5119 15.4882C14.8244 15.8007 15 16.2246 15 16.6667C15 17.1087 14.8244 17.5326 14.5119 17.8452C14.1993 18.1577 13.7754 18.3333 13.3334 18.3333C12.8913 18.3333 12.4674 18.1577 12.1549 17.8452C11.8423 17.5326 11.6667 17.1087 11.6667 16.6667C11.6667 16.2246 11.8423 15.8007 12.1549 15.4882C12.4674 15.1756 12.8913 15 13.3334 15ZM13.3334 15.8333C13.1124 15.8333 12.9004 15.9211 12.7441 16.0774C12.5878 16.2337 12.5 16.4457 12.5 16.6667C12.5 16.8877 12.5878 17.0996 12.7441 17.2559C12.9004 17.4122 13.1124 17.5 13.3334 17.5C13.5544 17.5 13.7664 17.4122 13.9226 17.2559C14.0789 17.0996 14.1667 16.8877 14.1667 16.6667C14.1667 16.4457 14.0789 16.2337 13.9226 16.0774C13.7664 15.9211 13.5544 15.8333 13.3334 15.8333ZM5.83337 15C6.2754 15 6.69933 15.1756 7.01189 15.4882C7.32445 15.8007 7.50004 16.2246 7.50004 16.6667C7.50004 17.1087 7.32445 17.5326 7.01189 17.8452C6.69933 18.1577 6.2754 18.3333 5.83337 18.3333C5.39135 18.3333 4.96742 18.1577 4.65486 17.8452C4.3423 17.5326 4.16671 17.1087 4.16671 16.6667C4.16671 16.2246 4.3423 15.8007 4.65486 15.4882C4.96742 15.1756 5.39135 15 5.83337 15ZM5.83337 15.8333C5.61236 15.8333 5.4004 15.9211 5.24412 16.0774C5.08784 16.2337 5.00004 16.4457 5.00004 16.6667C5.00004 16.8877 5.08784 17.0996 5.24412 17.2559C5.4004 17.4122 5.61236 17.5 5.83337 17.5C6.05439 17.5 6.26635 17.4122 6.42263 17.2559C6.57891 17.0996 6.66671 16.8877 6.66671 16.6667C6.66671 16.4457 6.57891 16.2337 6.42263 16.0774C6.26635 15.9211 6.05439 15.8333 5.83337 15.8333ZM15 5H3.56087L5.68337 10H12.5C12.6296 10.0002 12.7574 9.96999 12.8732 9.91181C12.989 9.85363 13.0895 9.76909 13.1667 9.665L15.6667 6.33167H15.6675C15.76 6.2078 15.8161 6.06067 15.8297 5.90672C15.8433 5.75277 15.8139 5.59807 15.7446 5.45991C15.6754 5.32175 15.569 5.20556 15.4376 5.12435C15.3061 5.04313 15.1546 5.00008 15 5ZM12.5 10.8333H5.72171L5.08337 12.1333L5.00004 12.5C5.00004 12.721 5.08784 12.933 5.24412 13.0893C5.4004 13.2455 5.61236 13.3333 5.83337 13.3333H15V14.1667H5.83337C5.54318 14.1668 5.25798 14.0912 5.00599 13.9473C4.75399 13.8033 4.54395 13.5961 4.39663 13.3461C4.24931 13.0961 4.16983 12.8119 4.16604 12.5217C4.16225 12.2316 4.2343 11.9454 4.37504 11.6917L4.97504 10.4633L1.94837 3.33333H0.833374V2.5H2.50004L3.20754 4.16667H15C15.3149 4.1667 15.6234 4.25593 15.8897 4.42405C16.1559 4.59216 16.3691 4.83226 16.5045 5.11654C16.64 5.40083 16.6921 5.71767 16.6549 6.03035C16.6176 6.34304 16.4926 6.63879 16.2942 6.88333L13.8659 10.1217C13.7123 10.3415 13.508 10.521 13.2702 10.6449C13.0324 10.7688 12.7682 10.8335 12.5 10.8333Z" fill="#FFEBEB"/>
<path d="M4.16671 16.6667H-1.83329H4.16671ZM3.56087 5V-1H-5.50435L-1.9621 7.34451L3.56087 5ZM5.68337 10L0.160396 12.3445L1.71215 16H5.68337V10ZM12.5 10L12.5092 4H12.5V10ZM13.1667 9.665L8.36671 6.065L8.35677 6.07825L8.3469 6.09157L13.1667 9.665ZM15.6667 6.33167V0.331667H12.6667L10.8667 2.73167L15.6667 6.33167ZM15.6675 6.33167V12.3317H18.6769L20.4765 9.91967L15.6675 6.33167ZM5.72171 10.8333V4.83333H1.98357L0.335951 8.18879L5.72171 10.8333ZM5.08337 12.1333L-0.302382 9.48879L-0.611827 10.119L-0.767422 10.8036L5.08337 12.1333ZM5.00004 12.5L-0.850756 11.1703L-0.999959 11.8268V12.5H5.00004ZM15 13.3333H21V7.33333H15V13.3333ZM15 14.1667V20.1667H21V14.1667H15ZM5.83337 14.1667V8.16667L5.83046 8.16667L5.83337 14.1667ZM4.37504 11.6917L9.62213 14.6017L9.69778 14.4653L9.76624 14.3251L4.37504 11.6917ZM4.97504 10.4633L10.3662 13.0968L11.5673 10.6379L10.498 8.11884L4.97504 10.4633ZM1.94837 3.33333L7.47136 0.98884L5.9196 -2.66667H1.94837V3.33333ZM0.833374 3.33333H-5.16663V9.33333H0.833374V3.33333ZM0.833374 2.5V-3.5H-5.16663V2.5H0.833374ZM2.50004 2.5L8.02302 0.155495L6.47126 -3.5H2.50004V2.5ZM3.20754 4.16667L-2.31544 6.51117L-0.76368 10.1667H3.20754V4.16667ZM15 4.16667L15.0006 -1.83333H15V4.16667ZM16.2942 6.88333L11.6346 3.10333L11.5626 3.19219L11.4939 3.28373L16.2942 6.88333ZM13.8659 10.1217L9.06558 6.52206L9.00478 6.60314L8.94675 6.68623L13.8659 10.1217ZM13.3334 21C12.1841 21 11.0819 20.5435 10.2692 19.7308L18.7545 11.2455C17.3168 9.80774 15.3667 9 13.3334 9V21ZM10.2692 19.7308C9.45659 18.9181 9.00004 17.8159 9.00004 16.6667H21C21 14.6333 20.1923 12.6833 18.7545 11.2455L10.2692 19.7308ZM9.00004 16.6667C9.00004 15.5174 9.45659 14.4152 10.2692 13.6025L18.7545 22.0878C20.1923 20.65 21 18.7 21 16.6667H9.00004ZM10.2692 13.6025C11.0819 12.7899 12.1841 12.3333 13.3334 12.3333V24.3333C15.3667 24.3333 17.3168 23.5256 18.7545 22.0878L10.2692 13.6025ZM13.3334 12.3333C14.4827 12.3333 15.5849 12.7899 16.3975 13.6025L7.91222 22.0878C9.35 23.5256 11.3 24.3333 13.3334 24.3333V12.3333ZM16.3975 13.6025C17.2102 14.4152 17.6667 15.5174 17.6667 16.6667H5.66671C5.66671 18.7 6.47445 20.65 7.91222 22.0878L16.3975 13.6025ZM17.6667 16.6667C17.6667 17.8159 17.2102 18.9181 16.3975 19.7308L7.91222 11.2455C6.47445 12.6833 5.66671 14.6333 5.66671 16.6667H17.6667ZM16.3975 19.7308C15.5849 20.5435 14.4827 21 13.3334 21V9C11.3 9 9.35 9.80774 7.91222 11.2455L16.3975 19.7308ZM13.3334 9.83333C11.5211 9.83333 9.78299 10.5533 8.50148 11.8348L16.9868 20.3201C16.0178 21.289 14.7037 21.8333 13.3334 21.8333V9.83333ZM8.50148 11.8348C7.21998 13.1163 6.50004 14.8544 6.50004 16.6667H18.5C18.5 18.037 17.9557 19.3511 16.9868 20.3201L8.50148 11.8348ZM6.50004 16.6667C6.50004 18.479 7.21998 20.2171 8.50148 21.4986L16.9868 13.0133C17.9557 13.9822 18.5 15.2964 18.5 16.6667H6.50004ZM8.50148 21.4986C9.78299 22.7801 11.5211 23.5 13.3334 23.5V11.5C14.7037 11.5 16.0178 12.0443 16.9868 13.0133L8.50148 21.4986ZM13.3334 23.5C15.1457 23.5 16.8838 22.7801 18.1653 21.4986L9.67999 13.0133C10.6489 12.0443 11.9631 11.5 13.3334 11.5V23.5ZM18.1653 21.4986C19.4468 20.2171 20.1667 18.479 20.1667 16.6667H8.16671C8.16671 15.2964 8.71104 13.9822 9.67999 13.0133L18.1653 21.4986ZM20.1667 16.6667C20.1667 14.8544 19.4468 13.1163 18.1653 11.8348L9.67999 20.3201C8.71104 19.3511 8.16671 18.0369 8.16671 16.6667H20.1667ZM18.1653 11.8348C16.8838 10.5533 15.1457 9.83333 13.3334 9.83333V21.8333C11.9631 21.8333 10.6489 21.289 9.67999 20.3201L18.1653 11.8348ZM5.83337 21C4.6841 21 3.5819 20.5435 2.76925 19.7308L11.2545 11.2455C9.81675 9.80774 7.86671 9 5.83337 9V21ZM2.76925 19.7308C1.95659 18.9181 1.50004 17.8159 1.50004 16.6667H13.5C13.5 14.6333 12.6923 12.6833 11.2545 11.2455L2.76925 19.7308ZM1.50004 16.6667C1.50004 15.5174 1.95659 14.4152 2.76925 13.6025L11.2545 22.0878C12.6923 20.65 13.5 18.7 13.5 16.6667H1.50004ZM2.76925 13.6025C3.5819 12.7899 4.6841 12.3333 5.83337 12.3333V24.3333C7.86671 24.3333 9.81675 23.5256 11.2545 22.0878L2.76925 13.6025ZM5.83337 12.3333C6.98265 12.3333 8.08485 12.7899 8.8975 13.6025L0.412223 22.0878C1.85 23.5256 3.80005 24.3333 5.83337 24.3333V12.3333ZM8.8975 13.6025C9.71016 14.4152 10.1667 15.5174 10.1667 16.6667H-1.83329C-1.83329 18.7 -1.02556 20.65 0.412223 22.0878L8.8975 13.6025ZM10.1667 16.6667C10.1667 17.8159 9.71016 18.9181 8.8975 19.7308L0.412223 11.2455C-1.02556 12.6833 -1.83329 14.6333 -1.83329 16.6667H10.1667ZM8.8975 19.7308C8.08485 20.5435 6.98265 21 5.83337 21V9C3.80005 9 1.85 9.80774 0.412223 11.2455L8.8975 19.7308ZM5.83337 9.83333C4.02107 9.83333 2.28299 10.5533 1.00148 11.8348L9.48676 20.3201C8.51781 21.289 7.20365 21.8333 5.83337 21.8333V9.83333ZM1.00148 11.8348C-0.280021 13.1163 -0.999959 14.8544 -0.999959 16.6667H11C11 18.037 10.4557 19.3511 9.48676 20.3201L1.00148 11.8348ZM-0.999959 16.6667C-0.999959 18.479 -0.280021 20.2171 1.00148 21.4986L9.48676 13.0133C10.4557 13.9822 11 15.2964 11 16.6667H-0.999959ZM1.00148 21.4986C2.28299 22.7801 4.02107 23.5 5.83337 23.5V11.5C7.20365 11.5 8.51781 12.0443 9.48676 13.0133L1.00148 21.4986ZM5.83337 23.5C7.64568 23.5 9.38376 22.7801 10.6653 21.4986L2.17999 13.0133C3.14894 12.0443 4.4631 11.5 5.83337 11.5V23.5ZM10.6653 21.4986C11.9468 20.2171 12.6667 18.479 12.6667 16.6667H0.666708C0.666708 15.2964 1.21105 13.9822 2.17999 13.0133L10.6653 21.4986ZM12.6667 16.6667C12.6667 14.8544 11.9468 13.1163 10.6653 11.8348L2.17999 20.3201C1.21105 19.3511 0.666708 18.037 0.666708 16.6667H12.6667ZM10.6653 11.8348C9.38376 10.5533 7.64568 9.83333 5.83337 9.83333V21.8333C4.4631 21.8333 3.14894 21.289 2.17999 20.3201L10.6653 11.8348ZM15 -1H3.56087V11H15V-1ZM-1.9621 7.34451L0.160396 12.3445L11.2064 7.65549L9.08385 2.65549L-1.9621 7.34451ZM5.68337 16H12.5V4H5.68337V16ZM12.4909 16C13.5591 16.0016 14.6128 15.7526 15.5672 15.273L10.1792 4.55062C10.9021 4.18736 11.7002 3.99877 12.5092 4.00001L12.4909 16ZM15.5672 15.273C16.5217 14.7934 17.3503 14.0965 17.9865 13.2384L8.3469 6.09157C8.82874 5.44166 9.45633 4.91387 10.1792 4.55062L15.5672 15.273ZM17.9667 13.265L20.4667 9.93167L10.8667 2.73167L8.36671 6.065L17.9667 13.265ZM15.6667 12.3317H15.6675V0.331667H15.6667V12.3317ZM20.4765 9.91967C21.2344 8.90393 21.6948 7.69746 21.8064 6.4351L9.85304 5.37834C9.93742 4.42388 10.2856 3.51167 10.8586 2.74367L20.4765 9.91967ZM21.8064 6.4351C21.918 5.17275 21.6764 3.90421 21.1085 2.77126L10.3807 8.14856C9.95135 7.29193 9.76866 6.33279 9.85304 5.37834L21.8064 6.4351ZM21.1085 2.77126C20.5406 1.63831 19.6688 0.685621 18.5907 0.0196462L12.2845 10.229C11.4693 9.72551 10.8101 9.00519 10.3807 8.14856L21.1085 2.77126ZM18.5907 0.0196462C17.5125 -0.646335 16.2703 -0.999371 15.003 -0.999999L14.9971 11C14.0389 10.9995 13.0997 10.7326 12.2845 10.229L18.5907 0.0196462ZM12.5 4.83333H5.72171V16.8333H12.5V4.83333ZM0.335951 8.18879L-0.302382 9.48879L10.4691 14.7779L11.1075 13.4779L0.335951 8.18879ZM-0.767422 10.8036L-0.850756 11.1703L10.8508 13.8297L10.9342 13.4631L-0.767422 10.8036ZM-0.999959 12.5C-0.999959 14.3123 -0.280017 16.0504 1.00148 17.3319L9.48676 8.84661C10.4557 9.81555 11 11.1297 11 12.5H-0.999959ZM1.00148 17.3319C2.28297 18.6134 4.02106 19.3333 5.83337 19.3333V7.33333C7.20366 7.33333 8.51782 7.87768 9.48676 8.84661L1.00148 17.3319ZM5.83337 19.3333H15V7.33333H5.83337V19.3333ZM9.00004 13.3333V14.1667H21V13.3333H9.00004ZM15 8.16667H5.83337V20.1667H15V8.16667ZM5.83046 8.16667C6.58496 8.1663 7.32649 8.36294 7.98167 8.73714L2.0303 19.1574C3.18947 19.8194 4.5014 20.1673 5.83629 20.1667L5.83046 8.16667ZM7.98167 8.73714C8.63685 9.11133 9.18297 9.65011 9.566 10.3002L-0.772737 16.392C-0.0950717 17.5421 0.871142 18.4953 2.0303 19.1574L7.98167 8.73714ZM9.566 10.3002C9.94903 10.9502 10.1557 11.689 10.1655 12.4435L-1.83345 12.6C-1.81603 13.9348 -1.4504 15.2419 -0.772737 16.392L9.566 10.3002ZM10.1655 12.4435C10.1754 13.1979 9.98806 13.9418 9.62213 14.6017L-0.872043 8.78166C-1.51947 9.94905 -1.85087 11.2653 -1.83345 12.6L10.1655 12.4435ZM9.76624 14.3251L10.3662 13.0968L-0.416163 7.82991L-1.01616 9.05824L9.76624 14.3251ZM10.498 8.11884L7.47136 0.98884L-3.57461 5.67783L-0.547943 12.8078L10.498 8.11884ZM1.94837 -2.66667H0.833374V9.33333H1.94837V-2.66667ZM6.83337 3.33333V2.5H-5.16663V3.33333H6.83337ZM0.833374 8.5H2.50004V-3.5H0.833374V8.5ZM-3.02294 4.84451L-2.31544 6.51117L8.73052 1.82216L8.02302 0.155495L-3.02294 4.84451ZM3.20754 10.1667H15V-1.83333H3.20754V10.1667ZM14.9995 10.1667C14.1807 10.1666 13.3788 9.93457 12.6865 9.49748L19.0928 -0.649393C17.868 -1.4227 16.4491 -1.8332 15.0006 -1.83333L14.9995 10.1667ZM12.6865 9.49748C11.9942 9.06039 11.4399 8.43612 11.0878 7.69698L21.9213 2.5361C21.2983 1.2284 20.3176 0.123918 19.0928 -0.649393L12.6865 9.49748ZM11.0878 7.69698C10.7357 6.95785 10.6002 6.13408 10.6969 5.32108L22.6128 6.73963C22.784 5.30126 22.5443 3.84381 21.9213 2.5361L11.0878 7.69698ZM10.6969 5.32108C10.7937 4.50809 11.1188 3.73915 11.6346 3.10333L20.9538 10.6633C21.8663 9.53842 22.4416 8.178 22.6128 6.73963L10.6969 5.32108ZM11.4939 3.28373L9.06558 6.52206L18.6662 13.7213L21.0945 10.4829L11.4939 3.28373ZM8.94675 6.68623C9.34649 6.11386 9.87854 5.6465 10.4977 5.3239L16.0427 15.9659C17.1374 15.3955 18.0782 14.5691 18.785 13.5571L8.94675 6.68623ZM10.4977 5.3239C11.1168 5.0013 11.8047 4.83301 12.5028 4.83333L12.4972 16.8333C13.7317 16.8339 14.948 16.5363 16.0427 15.9659L10.4977 5.3239Z" fill="#0C8B51" mask="url(#path-1-inside-1_78_3251)"/>
</svg>
